<svg width="24" height="24" viewBox="0 0 24 24" fill="none" xmlns="http://www.w3.org/2000/svg">
<path d="M18.6667 2C17.7826 2 16.9348 2.35119 16.3096 2.97631C15.6845 3.60143 15.3333 4.44928 15.3333 5.33333V18.6667C15.3333 19.5507 15.6845 20.3986 16.3096 21.0237C16.9348 21.6488 17.7826 22 18.6667 22C19.5507 22 20.3986 21.6488 21.0237 21.0237C21.6488 20.3986 22 19.5507 22 18.6667C22 17.7826 21.6488 16.9348 21.0237 16.3096C20.3986 15.6845 19.5507 15.3333 18.6667 15.3333H5.33333C4.44928 15.3333 3.60143 15.6845 2.97631 16.3096C2.35119 16.9348 2 17.7826 2 18.6667C2 19.5507 2.35119 20.3986 2.97631 21.0237C3.60143 21.6488 4.44928 22 5.33333 22C6.21739 22 7.06524 21.6488 7.69036 21.0237C8.31548 20.3986 8.66667 19.5507 8.66667 18.6667V5.33333C8.66667 4.44928 8.31548 3.60143 7.69036 2.97631C7.06524 2.35119 6.21739 2 5.33333 2C4.44928 2 3.60143 2.35119 2.97631 2.97631C2.35119 3.60143 2 4.44928 2 5.33333C2 6.21739 2.35119 7.06524 2.97631 7.69036C3.60143 8.31548 4.44928 8.66667 5.33333 8.66667H18.6667C19.5507 8.66667 20.3986 8.31548 21.0237 7.69036C21.6488 7.06524 22 6.21739 22 5.33333C22 4.44928 21.6488 3.60143 21.0237 2.97631C20.3986 2.35119 19.5507 2 18.6667 2Z" stroke="white" stroke-width="2" stroke-linecap="round" stroke-linejoin="round"/>
</svg>
