<svg width="16" height="16" viewBox="0 0 16 16" fill="none" xmlns="http://www.w3.org/2000/svg">
<path fill-rule="evenodd" clip-rule="evenodd" d="M7.02105 4.94118C6.87475 5.67955 6.23757 6.23529 5.47368 6.23529C4.7098 6.23529 4.07262 5.67955 3.92632 4.94118H2.31579C2.14138 4.94118 2 4.79633 2 4.61765C2 4.43897 2.14138 4.29412 2.31579 4.29412H3.92632C4.07262 3.55575 4.7098 3 5.47368 3C6.23757 3 6.87475 3.55575 7.02105 4.29412H13.6842C13.8586 4.29412 14 4.43897 14 4.61765C14 4.79633 13.8586 4.94118 13.6842 4.94118H7.02105ZM6.42105 4.61765C6.42105 5.15369 5.9969 5.58824 5.47368 5.58824C4.95047 5.58824 4.52632 5.15369 4.52632 4.61765C4.52632 4.08161 4.95047 3.64706 5.47368 3.64706C5.9969 3.64706 6.42105 4.08161 6.42105 4.61765Z" fill="white"/>
<path fill-rule="evenodd" clip-rule="evenodd" d="M12.0737 8.82353C11.9274 9.5619 11.2902 10.1176 10.5263 10.1176C9.76243 10.1176 9.12525 9.5619 8.97895 8.82353H2.31579C2.14138 8.82353 2 8.67868 2 8.5C2 8.32132 2.14138 8.17647 2.31579 8.17647H8.97895C9.12525 7.4381 9.76243 6.88235 10.5263 6.88235C11.2902 6.88235 11.9274 7.4381 12.0737 8.17647H13.6842C13.8586 8.17647 14 8.32132 14 8.5C14 8.67868 13.8586 8.82353 13.6842 8.82353H12.0737ZM11.4737 8.5C11.4737 9.03604 11.0495 9.47059 10.5263 9.47059C10.0031 9.47059 9.57895 9.03604 9.57895 8.5C9.57895 7.96396 10.0031 7.52941 10.5263 7.52941C11.0495 7.52941 11.4737 7.96396 11.4737 8.5Z" fill="white"/>
<path fill-rule="evenodd" clip-rule="evenodd" d="M5.47368 14C6.23757 14 6.87475 13.4443 7.02105 12.7059H13.6842C13.8586 12.7059 14 12.561 14 12.3824C14 12.2037 13.8586 12.0588 13.6842 12.0588H7.02105C6.87475 11.3205 6.23757 10.7647 5.47368 10.7647C4.7098 10.7647 4.07262 11.3205 3.92632 12.0588H2.31579C2.14138 12.0588 2 12.2037 2 12.3824C2 12.561 2.14138 12.7059 2.31579 12.7059H3.92632C4.07262 13.4443 4.7098 14 5.47368 14ZM5.47368 13.3529C5.9969 13.3529 6.42105 12.9184 6.42105 12.3824C6.42105 11.8463 5.9969 11.4118 5.47368 11.4118C4.95047 11.4118 4.52632 11.8463 4.52632 12.3824C4.52632 12.9184 4.95047 13.3529 5.47368 13.3529Z" fill="white"/>
</svg>
