<svg width="16" height="16" viewBox="0 0 16 16" fill="none" xmlns="http://www.w3.org/2000/svg">
<path fill-rule="evenodd" clip-rule="evenodd" d="M2.48954 8.01781C2.29836 8.01781 2.14338 8.17278 2.14338 8.36396C2.14338 8.55514 2.29836 8.71011 2.48954 8.71011L8.01781 8.71011L8.01781 14.2384C8.01781 14.4296 8.17279 14.5845 8.36396 14.5845C8.55514 14.5845 8.71011 14.4296 8.71011 14.2384L8.71012 8.71011H14.2384C14.4296 8.71011 14.5845 8.55513 14.5845 8.36396C14.5845 8.17279 14.4296 8.01781 14.2384 8.01781H8.71012L8.71011 2.48953C8.71011 2.29836 8.55514 2.14338 8.36396 2.14338C8.17279 2.14338 8.01781 2.29836 8.01781 2.48953L8.01781 8.01781L2.48954 8.01781Z" fill="#DBDBDB" stroke="#DBDBDB" stroke-linecap="round"/>
</svg>
