<svg width="24" height="24" viewBox="0 0 24 24" fill="none" xmlns="http://www.w3.org/2000/svg">
<path fill-rule="evenodd" clip-rule="evenodd" d="M7.59092 7.10139C7.45574 6.9662 7.23657 6.9662 7.10139 7.10139C6.9662 7.23657 6.9662 7.45574 7.10139 7.59092L11.0105 11.5L7.10139 15.4091C6.9662 15.5443 6.9662 15.7634 7.10139 15.8986C7.23657 16.0338 7.45574 16.0338 7.59092 15.8986L11.5 11.9895L15.4091 15.8986C15.5443 16.0338 15.7634 16.0338 15.8986 15.8986C16.0338 15.7634 16.0338 15.5443 15.8986 15.4091L11.9895 11.5L15.8986 7.59092C16.0338 7.45574 16.0338 7.23657 15.8986 7.10139C15.7634 6.9662 15.5443 6.9662 15.4091 7.10139L11.5 11.0105L7.59092 7.10139Z" fill="#DBDBDB" stroke="#DBDBDB" stroke-linecap="round"/>
</svg>
