<svg width="24" height="24" viewBox="0 0 24 24" fill="none" xmlns="http://www.w3.org/2000/svg">
<path d="M12 3C8.1099 3 5 5.99883 5 9.75C5 11.0473 5.40104 12.0492 6.0974 13.0652L11.2635 20.6238C11.4203 20.8523 11.6901 21 12 21C12.3099 21 12.5833 20.8488 12.7365 20.6238L17.9026 13.0652C18.599 12.0492 19 11.0473 19 9.75C19 5.99883 15.8901 3 12 3ZM12 13.4977C9.8526 13.4977 8.1099 11.8172 8.1099 9.74297C8.1099 7.66875 9.8526 5.98828 12 5.98828C14.1474 5.98828 15.8901 7.66875 15.8901 9.74297C15.8901 11.8172 14.1474 13.4977 12 13.4977ZM12 7.5C10.7094 7.5 9.66667 8.50547 9.66667 9.75C9.66667 10.9945 10.7094 12 12 12C13.2906 12 14.3333 10.9945 14.3333 9.75C14.3333 8.50547 13.2906 7.5 12 7.5Z" fill="#5E5F61"/>
</svg>
